<svg width="32" height="32" viewBox="0 0 32 32" fill="none" xmlns="http://www.w3.org/2000/svg">
  <!-- QR Code Pattern -->
  <!-- Top Left Corner -->
  <rect x="2" y="2" width="10" height="10" fill="#000" rx="1"/>
  <rect x="4" y="4" width="6" height="6" fill="#fff"/>
  <rect x="6" y="6" width="2" height="2" fill="#000"/>
  
  <!-- Top Right Corner -->
  <rect x="20" y="2" width="10" height="10" fill="#000" rx="1"/>
  <rect x="22" y="4" width="6" height="6" fill="#fff"/>
  <rect x="24" y="6" width="2" height="2" fill="#000"/>
  
  <!-- Bottom Left Corner -->
  <rect x="2" y="20" width="10" height="10" fill="#000" rx="1"/>
  <rect x="4" y="22" width="6" height="6" fill="#fff"/>
  <rect x="6" y="24" width="2" height="2" fill="#000"/>
  
  <!-- Data Modules -->
  <rect x="14" y="2" width="2" height="2" fill="#000"/>
  <rect x="14" y="6" width="2" height="2" fill="#000"/>
  <rect x="16" y="4" width="2" height="2" fill="#000"/>
  
  <rect x="2" y="14" width="2" height="2" fill="#000"/>
  <rect x="6" y="14" width="2" height="2" fill="#000"/>
  <rect x="10" y="14" width="2" height="2" fill="#000"/>
  <rect x="14" y="14" width="2" height="2" fill="#000"/>
  <rect x="18" y="14" width="2" height="2" fill="#000"/>
  <rect x="22" y="14" width="2" height="2" fill="#000"/>
  <rect x="26" y="14" width="2" height="2" fill="#000"/>
  <rect x="30" y="14" width="2" height="2" fill="#000"/>
  
  <rect x="14" y="16" width="2" height="2" fill="#000"/>
  <rect x="16" y="18" width="2" height="2" fill="#000"/>
  <rect x="18" y="16" width="2" height="2" fill="#000"/>
  <rect x="20" y="18" width="2" height="2" fill="#000"/>
  
  <rect x="14" y="20" width="2" height="2" fill="#000"/>
  <rect x="16" y="22" width="2" height="2" fill="#000"/>
  <rect x="18" y="24" width="2" height="2" fill="#000"/>
  <rect x="20" y="20" width="2" height="2" fill="#000"/>
  <rect x="22" y="22" width="2" height="2" fill="#000"/>
  <rect x="24" y="24" width="2" height="2" fill="#000"/>
  <rect x="26" y="20" width="2" height="2" fill="#000"/>
  <rect x="28" y="22" width="2" height="2" fill="#000"/>
  <rect x="30" y="24" width="2" height="2" fill="#000"/>
  
  <rect x="14" y="28" width="2" height="2" fill="#000"/>
  <rect x="18" y="28" width="2" height="2" fill="#000"/>
  <rect x="22" y="28" width="2" height="2" fill="#000"/>
  <rect x="26" y="28" width="2" height="2" fill="#000"/>
  <rect x="30" y="28" width="2" height="2" fill="#000"/>
  
  <rect x="14" y="30" width="2" height="2" fill="#000"/>
  <rect x="16" y="30" width="2" height="2" fill="#000"/>
  <rect x="18" y="30" width="2" height="2" fill="#000"/>
  <rect x="20" y="30" width="2" height="2" fill="#000"/>
  <rect x="22" y="30" width="2" height="2" fill="#000"/>
  <rect x="24" y="30" width="2" height="2" fill="#000"/>
  <rect x="26" y="30" width="2" height="2" fill="#000"/>
  <rect x="28" y="30" width="2" height="2" fill="#000"/>
  <rect x="30" y="30" width="2" height="2" fill="#000"/>
</svg>